<?xml version="1.0" encoding="UTF-8"?> <svg xmlns="http://www.w3.org/2000/svg" id="Layer_2" viewBox="0 0 524.9 524.9"><defs><style>.cls-1{fill:#fff;}.cls-2{fill:#231f20;}</style></defs><g id="Layer_3"><circle class="cls-2" cx="262.45" cy="262.45" r="262.45"></circle><path class="cls-1" d="m161.43,331.42c-8.89-8.35-16.98-17.69-24.04-27.75-16.38-23.81-24.67-49.05-24.67-75.06,0-19.01,5.13-34.45,15.24-45.89,10.32-11.67,24.04-17.58,40.79-17.58,4.62,0,9.03.22,13.1.65,4.18.45,8.13,1.3,11.73,2.53,3.52,1.21,7.45,2.92,11.68,5.09,2.45,1.26,4.88,2.6,7.27,4.01v-38.86l-29.31-1.58c-2.46-.2-5.65-.36-9.48-.47-3.92-.1-7.51-.16-10.68-.16-22.9,0-42.34,8.59-57.77,25.54-15.41,16.93-23.22,38.63-23.22,64.48,0,15.37,2.01,30.37,5.98,44.58,3.96,14.21,10.1,28.16,18.25,41.46,14.57,23.66,35.13,44.43,61.12,61.71,12.14,8.09,24.79,15.04,37.59,20.64,11.62,5.08,24.1,9.36,37.15,12.74v-35.07c-14.79-.8-31.82-6.94-50.69-18.28-11.04-6.75-21.13-14.4-30.02-22.76Z"></path><path class="cls-1" d="m430.8,225.89c-7.4-9.8-16.55-16.18-27.18-18.97l-9.48-2.48,9.04-3.78c7.82-3.27,13.65-7.52,17.32-12.65,2.03-2.8,3.51-5.66,4.42-8.52.91-2.87,1.37-6.14,1.37-9.73,0-11.64-4.28-19.77-13.08-24.84-6.95-4.07-17.05-6.12-30.06-6.12h-105.6s.48,269.34,0,270.31c22.23-1.1,48.87-8.49,72.73-22.01,13.64-7.66,25.95-16.21,36.63-25.41,10.67-9.2,20.37-19.49,28.84-30.57,17.93-23.53,27.03-46.89,27.03-69.42,0-13.19-4.03-25.23-11.99-35.81Zm-115.66-61.04h62.25c2.22,0,4.24.26,5.98.78,1.69.5,3.31,1.2,4.81,2.08l.23.15c3.02,2.12,4.61,5.21,4.61,8.96s-1.45,7.1-4.3,9.67l-.25.2c-3.03,2.24-6.76,3.37-11.1,3.37h-62.25v-25.2Zm78.4,146.5c-4.68,6.53-10.09,12.82-16.07,18.7-5.96,5.86-12.66,11.51-19.9,16.81-7.19,5.23-13.91,9.35-19.99,12.25-6.12,2.92-12.32,5.08-18.42,6.41l-4.02.88v-148.68h45.75c13.78,0,25.47,4.81,34.72,14.29,9.33,9.33,14.08,20.84,14.08,34.18,0,14.94-5.43,30.14-16.15,45.17Z"></path></g></svg> 